<svg width="35" height="35" viewBox="0 0 35 35" fill="none" xmlns="http://www.w3.org/2000/svg">
<path d="M31.44 16.272C31.44 14.256 29.808 13.2 27.6 13.2H21.168C21.648 11.472 21.84 9.83999 21.84 8.39999C21.84 2.83199 20.304 1.67999 18.96 1.67999C18.096 1.67999 17.424 1.77599 16.56 2.25599C16.272 2.44799 16.176 2.63999 16.08 2.92799L15.12 8.11199C14.064 10.8 11.472 13.2 9.35999 14.832V28.56C10.128 28.56 10.896 28.944 11.856 29.424C12.912 29.904 13.968 30.48 15.12 30.48H24.24C26.16 30.48 27.6 28.944 27.6 27.6C27.6 27.312 27.6 27.12 27.504 26.928C28.656 26.448 29.52 25.488 29.52 24.24C29.52 23.664 29.424 23.184 29.232 22.704C30 22.224 30.672 21.36 30.672 20.4C30.672 19.824 30.384 19.248 30.096 18.768C30.864 18.192 31.44 17.232 31.44 16.272V16.272ZM29.424 16.272C29.424 17.52 28.176 17.616 27.984 18.192C27.792 18.864 28.752 19.056 28.752 20.208C28.752 21.36 27.312 21.36 27.12 22.032C26.928 22.8 27.6 22.992 27.6 24.144V24.336C27.408 25.296 25.968 25.392 25.68 25.776C25.392 26.256 25.68 26.448 25.68 27.504C25.68 28.08 25.008 28.464 24.24 28.464H15.12C14.352 28.464 13.584 28.08 12.624 27.6C11.856 27.216 11.088 26.832 10.32 26.64V16.56C12.72 14.736 15.792 12.048 16.944 8.68799V8.49599L17.808 3.69599C18.192 3.59999 18.48 3.59999 18.96 3.59999C19.152 3.59999 19.92 4.75199 19.92 8.39999C19.92 9.83999 19.632 11.376 19.152 13.2H18.96C18.384 13.2 18 13.584 18 14.16C18 14.736 18.384 15.12 18.96 15.12H27.6C28.56 15.12 29.424 15.6 29.424 16.272Z" fill="#756457"/>
<path d="M9.35999 30.48H3.59999C2.54399 30.48 1.67999 29.616 1.67999 28.56V15.12C1.67999 14.064 2.54399 13.2 3.59999 13.2H9.35999C10.416 13.2 11.28 14.064 11.28 15.12V28.56C11.28 29.616 10.416 30.48 9.35999 30.48ZM3.59999 15.12V28.56H9.35999V15.12H3.59999Z" fill="#756457"/>
</svg>
