<svg width="35" height="35" viewBox="0 0 35 35" fill="none" xmlns="http://www.w3.org/2000/svg">
<path d="M21 28.1945C21 27.9366 20.8976 27.6893 20.7152 27.507C20.5329 27.3247 20.2856 27.2222 20.0278 27.2222H14.1944C13.9366 27.2222 13.6893 27.3247 13.507 27.507C13.3247 27.6893 13.2222 27.9366 13.2222 28.1945C13.2222 28.4523 13.3247 28.6996 13.507 28.8819C13.6893 29.0642 13.9366 29.1667 14.1944 29.1667H20.0278C20.2856 29.1667 20.5329 29.0642 20.7152 28.8819C20.8976 28.6996 21 28.4523 21 28.1945Z" fill="#756457"/>
<path d="M21.9139 23.3333H16.0806C15.8227 23.3333 15.5754 23.4358 15.3931 23.6181C15.2108 23.8004 15.1083 24.0477 15.1083 24.3056C15.1083 24.5634 15.2108 24.8107 15.3931 24.993C15.5754 25.1754 15.8227 25.2778 16.0806 25.2778H21.9139C22.1717 25.2778 22.419 25.1754 22.6014 24.993C22.7837 24.8107 22.8861 24.5634 22.8861 24.3056C22.8861 24.0477 22.7837 23.8004 22.6014 23.6181C22.419 23.4358 22.1717 23.3333 21.9139 23.3333Z" fill="#756457"/>
<path d="M21.3889 31.1111H15.5556C15.2977 31.1111 15.0504 31.2135 14.8681 31.3959C14.6858 31.5782 14.5833 31.8255 14.5833 32.0833C14.5833 32.3412 14.6858 32.5885 14.8681 32.7708C15.0504 32.9531 15.2977 33.0556 15.5556 33.0556H21.3889C21.6467 33.0556 21.894 32.9531 22.0764 32.7708C22.2587 32.5885 22.3611 32.3412 22.3611 32.0833C22.3611 31.8255 22.2587 31.5782 22.0764 31.3959C21.894 31.2135 21.6467 31.1111 21.3889 31.1111Z" fill="#756457"/>
<path d="M31.7917 31.1111H24.9861C24.7283 31.1111 24.481 31.2135 24.2986 31.3959C24.1163 31.5782 24.0139 31.8255 24.0139 32.0833C24.0139 32.3412 24.1163 32.5885 24.2986 32.7708C24.481 32.9531 24.7283 33.0556 24.9861 33.0556H31.7917C32.0495 33.0556 32.2968 32.9531 32.4791 32.7708C32.6615 32.5885 32.7639 32.3412 32.7639 32.0833C32.7639 31.8255 32.6615 31.5782 32.4791 31.3959C32.2968 31.2135 32.0495 31.1111 31.7917 31.1111Z" fill="#756457"/>
<path d="M32.7639 27.2222H25.9583C25.7005 27.2222 25.4532 27.3247 25.2709 27.507C25.0885 27.6893 24.9861 27.9366 24.9861 28.1945C24.9861 28.4523 25.0885 28.6996 25.2709 28.8819C25.4532 29.0642 25.7005 29.1667 25.9583 29.1667H32.7639C33.0217 29.1667 33.269 29.0642 33.4514 28.8819C33.6337 28.6996 33.7361 28.4523 33.7361 28.1945C33.7361 27.9366 33.6337 27.6893 33.4514 27.507C33.269 27.3247 33.0217 27.2222 32.7639 27.2222Z" fill="#756457"/>
<path d="M32.8028 25.2778C32.5178 21.8546 31.5876 18.5162 30.0611 15.4389C28.5988 12.6581 26.4919 10.2678 23.9167 8.46807L26.25 3.32502C26.3252 3.17131 26.3585 3.00047 26.3466 2.82976C26.3346 2.65905 26.2778 2.49452 26.1819 2.35279C26.0934 2.22846 25.9769 2.12671 25.8418 2.05577C25.7067 1.98484 25.5568 1.9467 25.4042 1.94446H9.52778C9.36434 1.94406 9.20343 1.98486 9.05994 2.0631C8.91645 2.14135 8.79499 2.2545 8.70681 2.39211C8.61862 2.52972 8.56655 2.68734 8.55541 2.8504C8.54426 3.01345 8.57441 3.17669 8.64305 3.32502L11.025 8.48752C8.46852 10.289 6.37601 12.6714 4.91944 15.4389C2.82917 19.3278 2.17778 24.082 2.00278 27.3778C1.97412 27.8603 2.04571 28.3435 2.21304 28.7969C2.38037 29.2504 2.6398 29.6643 2.975 30.0125C3.32729 30.3547 3.74443 30.623 4.2019 30.8016C4.65937 30.9803 5.14794 31.0657 5.63889 31.0528H11.6667V29.1667H5.56111C5.34108 29.166 5.12346 29.1209 4.92131 29.034C4.71916 28.9471 4.53664 28.8203 4.38472 28.6611C4.23257 28.5032 4.11507 28.3153 4.03973 28.1094C3.9644 27.9035 3.93289 27.6841 3.94722 27.4653C4.08333 24.9278 4.61805 20.0958 6.63055 16.3333C8.04925 13.6375 10.1471 11.3586 12.7167 9.72224H13.6889C13.0301 10.6337 12.4231 11.5815 11.8708 12.5611C11.3084 13.6036 10.8305 14.6895 10.4417 15.8083L11.7736 16.7028C12.1671 15.542 12.6515 14.4139 13.2222 13.3292C13.9231 12.0679 14.7194 10.8621 15.6042 9.72224H16.5764C17.2286 11.2811 17.6889 12.9134 17.9472 14.5833C18.1584 15.823 18.2625 17.0786 18.2583 18.3361L19.7944 17.257C19.7516 16.2792 19.6477 15.3051 19.4833 14.3403C19.2225 12.7635 18.8056 11.2166 18.2389 9.72224H18.9972L19.8819 7.77779H12.8431L11.0444 3.88891H23.8875L21.4569 9.20696C21.8736 9.43013 22.2733 9.68358 22.6528 9.96529C25.0349 11.6087 26.9885 13.7991 28.35 16.3528C29.7137 19.153 30.5602 22.1766 30.8486 25.2778H32.8028Z" fill="#756457"/>
</svg>
