<svg width="35" height="35" viewBox="0 0 35 35" fill="none" xmlns="http://www.w3.org/2000/svg">
<path fill-rule="evenodd" clip-rule="evenodd" d="M12.6884 6.19273C10.9676 6.65536 9.25785 7.15854 7.56074 7.70187C7.40715 7.74928 7.27006 7.83905 7.16521 7.96088C7.06036 8.08271 6.992 8.23165 6.968 8.39058C5.96504 15.7236 8.27955 21.0753 11.04 24.5997C12.425 26.3685 13.9247 27.6782 15.1742 28.5382C15.8008 28.9672 16.3521 29.2796 16.7868 29.479C17.0051 29.5788 17.182 29.6465 17.3175 29.686C17.3772 29.7052 17.4382 29.7203 17.5 29.7312C17.5132 29.7293 17.5715 29.7218 17.6825 29.6879C17.818 29.6465 17.9949 29.5788 18.2132 29.479C18.646 29.2796 19.2011 28.9672 19.8258 28.5382C21.3925 27.4389 22.786 26.1114 23.9599 24.5997C26.7204 21.0753 29.0349 15.7236 28.032 8.39058C28.008 8.23165 27.9396 8.08271 27.8348 7.96088C27.7299 7.83905 27.5928 7.74928 27.4392 7.70187C26.2613 7.32553 24.2742 6.71208 22.3115 6.19273C20.3056 5.66397 18.4597 5.26881 17.5 5.26881C16.5403 5.26881 14.6962 5.66397 12.6884 6.19273ZM12.2067 4.37499C14.1693 3.85563 16.2524 3.38708 17.5 3.38708C18.7457 3.38708 20.8306 3.85563 22.7933 4.37499C24.5438 4.84499 26.283 5.35634 28.0094 5.90859C29.0029 6.22472 29.7519 7.0809 29.8968 8.13655C30.975 16.0341 28.4742 21.8863 25.4427 25.7589C24.1509 27.4208 22.6172 28.8797 20.8927 30.0868C20.2931 30.5068 19.6592 30.8757 18.9978 31.1895C18.4898 31.4228 17.9478 31.6129 17.5 31.6129C17.0521 31.6129 16.5102 31.4228 16.0021 31.1895C15.3406 30.876 14.7067 30.5071 14.1072 30.0868C12.3835 28.8795 10.8504 27.4206 9.55912 25.7589C6.52391 21.8863 4.02498 16.0341 5.10321 8.13655C5.1753 7.62485 5.39083 7.14404 5.72484 6.74975C6.05885 6.35546 6.4977 6.06382 6.99058 5.90859C8.71696 5.35635 10.4562 4.84501 12.2067 4.37499V4.37499Z" fill="#756457"/>
<path fill-rule="evenodd" clip-rule="evenodd" d="M22.8704 14.0113C22.958 14.0987 23.0276 14.2025 23.075 14.3168C23.1224 14.4311 23.1468 14.5537 23.1468 14.6774C23.1468 14.8012 23.1224 14.9237 23.075 15.038C23.0276 15.1523 22.958 15.2562 22.8704 15.3436L17.2253 20.9887C17.1379 21.0763 17.034 21.1459 16.9197 21.1933C16.8054 21.2407 16.6829 21.2651 16.5591 21.2651C16.4354 21.2651 16.3128 21.2407 16.1985 21.1933C16.0842 21.1459 15.9804 21.0763 15.893 20.9887L13.0704 18.1661C12.9829 18.0787 12.9135 17.9748 12.8662 17.8605C12.8189 17.7462 12.7945 17.6237 12.7945 17.5C12.7945 17.3763 12.8189 17.2538 12.8662 17.1395C12.9135 17.0252 12.9829 16.9214 13.0704 16.8339C13.1579 16.7464 13.2617 16.677 13.376 16.6297C13.4903 16.5823 13.6128 16.558 13.7365 16.558C13.8603 16.558 13.9828 16.5823 14.0971 16.6297C14.2113 16.677 14.3152 16.7464 14.4027 16.8339L16.5591 18.9922L21.5382 14.0113C21.6256 13.9237 21.7294 13.8542 21.8437 13.8067C21.958 13.7593 22.0805 13.7349 22.2043 13.7349C22.328 13.7349 22.4506 13.7593 22.5649 13.8067C22.6792 13.8542 22.783 13.9237 22.8704 14.0113V14.0113Z" fill="#756457"/>
</svg>
