<svg width="34" height="32" viewBox="0 0 34 32" fill="none" xmlns="http://www.w3.org/2000/svg">
<path fill-rule="evenodd" clip-rule="evenodd" d="M17.8468 2.85599C11.0884 2.85599 5.90446 8.44627 5.29674 15.0891H2.97797L6.2915 18.5077L9.90802 15.0891H7.56297C8.14267 9.43402 12.3739 4.65461 17.9607 4.65461C23.9363 4.65461 28.7997 9.71248 28.7997 15.928C28.7997 22.1435 23.9363 27.2031 17.9607 27.2031C14.9922 27.2031 12.3003 25.9544 10.3424 23.9369L8.9045 25.3835C11.3053 27.7003 14.5105 28.9965 17.8468 29C25.0133 29 30.84 23.1348 30.84 15.928C30.84 8.72123 25.0133 2.85599 17.8468 2.85599V2.85599Z" fill="#756457"/>
<path fill-rule="evenodd" clip-rule="evenodd" d="M16.8854 8.01193V16.7861H23.8207V15.0348H18.5842V8.01193H16.8854Z" fill="#756457"/>
</svg>
