<svg width="25" height="27" viewBox="0 0 25 27" fill="none" xmlns="http://www.w3.org/2000/svg">
<path d="M20.6318 4.23963C20.0826 3.71411 17.8596 2.03873 12.9033 2.01627C12.9033 2.01627 7.0605 1.65245 4.21476 4.36539C2.63187 6.00933 2.07397 8.42133 2.01342 11.4083C1.95288 14.3952 1.87935 19.9917 7.07347 21.5099H7.0778L7.07347 23.8276C7.07347 23.8276 7.03887 24.7663 7.6357 24.955C8.35362 25.1886 8.77746 24.4744 9.4651 23.7063C9.84136 23.2841 10.3603 22.6643 10.7539 22.1926C14.3089 22.5026 17.0379 21.7929 17.3493 21.6896C18.0672 21.447 22.1282 20.908 22.7856 15.3115C23.4689 9.53525 22.4569 5.88805 20.6318 4.23963V4.23963ZM21.233 14.8893C20.6751 19.5606 17.3839 19.857 16.7784 20.0591C16.5189 20.1445 14.1186 20.7643 11.1042 20.5622C11.1042 20.5622 8.8553 23.3784 8.15468 24.1106C7.92546 24.3486 7.67462 24.3262 7.67895 23.8545C7.67895 23.5446 7.69625 20.0052 7.69625 20.0052C7.69192 20.0052 7.69192 20.0052 7.69625 20.0052C3.29357 18.7386 3.55306 13.973 3.60064 11.4801C3.64821 8.98727 4.10232 6.94358 5.44301 5.56915C7.85194 3.30088 12.8125 3.63775 12.8125 3.63775C17.0033 3.65572 19.01 4.96727 19.4771 5.40745C21.021 6.78188 21.8082 10.0698 21.233 14.8893V14.8893ZM15.2215 11.26C15.2388 11.6463 14.6808 11.6733 14.6635 11.287C14.616 10.2988 14.1705 9.81822 13.2537 9.76432C12.8817 9.74186 12.9163 9.16245 13.2839 9.1849C14.4906 9.25228 15.1609 9.97094 15.2215 11.26ZM16.0994 11.7676C16.1426 9.86314 14.9966 8.37192 12.8212 8.20573C12.4536 8.17878 12.4925 7.59936 12.8601 7.62631C15.3685 7.81496 16.7049 9.60712 16.6573 11.7811C16.653 12.1673 16.0907 12.1494 16.0994 11.7676V11.7676ZM18.1321 12.3695C18.1364 12.7557 17.5742 12.7602 17.5742 12.374C17.5482 8.71328 15.1998 6.719 12.3498 6.69654C11.9822 6.69205 11.9822 6.11712 12.3498 6.11712C15.5372 6.13958 18.1018 8.42582 18.1321 12.3695V12.3695ZM17.6434 16.7757V16.7847C17.1763 17.6381 16.3027 18.5814 15.4031 18.2804L15.3944 18.267C14.4819 18.002 12.3325 16.8521 10.9745 15.7292C10.2738 15.1543 9.63377 14.476 9.14074 13.8247C8.69528 13.2453 8.2455 12.5581 7.80869 11.7317C6.88751 10.0024 6.68424 9.22982 6.68424 9.22982C6.39448 8.29556 7.29836 7.38825 8.12441 6.90316H8.13306C8.53094 6.68756 8.91153 6.75943 9.16669 7.07833C9.16669 7.07833 9.70297 7.74309 9.93219 8.07098C10.1484 8.37641 10.4382 8.866 10.5896 9.13999C10.8534 9.62957 10.689 10.1281 10.4295 10.3348L9.91056 10.766C9.64675 10.986 9.68135 11.3948 9.68135 11.3948C9.68135 11.3948 10.4512 14.4176 13.3272 15.1812C13.3272 15.1812 13.7207 15.2172 13.9327 14.9432L14.3478 14.4042C14.5468 14.1347 15.0268 13.964 15.4982 14.238C16.134 14.6108 16.9427 15.1902 17.479 15.7157C17.7818 15.9717 17.8509 16.3625 17.6434 16.7757Z" fill="white"/>
</svg>
