<svg width="47" height="47" viewBox="0 0 47 47" fill="none" xmlns="http://www.w3.org/2000/svg">
<path d="M20.5625 4.40625C18.9557 4.40625 17.625 5.73694 17.625 7.34375V8.8125H13.2188V7.34375H10.2812V8.8125H7.34375C5.73694 8.8125 4.40625 10.1432 4.40625 11.75V35.25C4.40625 36.8568 5.73694 38.1875 7.34375 38.1875H39.6562C41.2631 38.1875 42.5938 36.8568 42.5938 35.25V11.75C42.5938 10.1432 41.2631 8.8125 39.6562 8.8125H36.7188V7.34375H33.7812V8.8125H29.375V7.34375C29.375 5.73694 28.0443 4.40625 26.4375 4.40625H20.5625ZM20.5625 7.34375H26.4375V8.8125H20.5625V7.34375ZM7.34375 11.75H39.6562V35.25H36.7188V13.2188H33.7812V35.25H13.2188V13.2188H10.2812V35.25H7.34375V11.75Z" fill="#F6CFAE"/>
</svg>
