<svg width="47" height="47" viewBox="0 0 47 47" fill="none" xmlns="http://www.w3.org/2000/svg">
<path d="M23.5 7.34375C17.838 7.34375 13.2188 11.963 13.2188 17.625C13.2188 21.1647 15.0253 24.3078 17.7631 26.1628C12.524 28.41 8.8125 33.6094 8.8125 39.6562H11.75C11.75 33.1497 16.9934 27.9062 23.5 27.9062C30.0066 27.9062 35.25 33.1497 35.25 39.6562H38.1875C38.1875 33.6094 34.476 28.4115 29.2369 26.1614C30.6342 25.2181 31.7791 23.9468 32.5713 22.4586C33.3635 20.9705 33.7789 19.3109 33.7812 17.625C33.7812 11.963 29.162 7.34375 23.5 7.34375ZM23.5 10.2812C27.5728 10.2812 30.8438 13.5522 30.8438 17.625C30.8438 21.6978 27.5728 24.9688 23.5 24.9688C19.4272 24.9688 16.1562 21.6978 16.1562 17.625C16.1562 13.5522 19.4272 10.2812 23.5 10.2812Z" fill="#F7CFAE"/>
</svg>
